<svg width="20" height="20" viewBox="0 0 20 20" fill="none" xmlns="http://www.w3.org/2000/svg">
<path d="M2.0835 9.99967C2.0835 6.26772 2.0835 4.40175 3.24286 3.24237C4.40224 2.08301 6.26821 2.08301 10.0002 2.08301C13.7321 2.08301 15.5981 2.08301 16.7575 3.24237C17.9168 4.40175 17.9168 6.26772 17.9168 9.99967C17.9168 13.7316 17.9168 15.5976 16.7575 16.757C15.5981 17.9163 13.7321 17.9163 10.0002 17.9163C6.26821 17.9163 4.40224 17.9163 3.24286 16.757C2.0835 15.5976 2.0835 13.7316 2.0835 9.99967Z" stroke="#355B85" stroke-width="1.5" stroke-linejoin="round"/>
<path d="M7.0835 8.33301C6.39314 8.33301 5.8335 7.77337 5.8335 7.08301C5.8335 6.39265 6.39314 5.83301 7.0835 5.83301C7.77385 5.83301 8.3335 6.39265 8.3335 7.08301C8.3335 7.77337 7.77385 8.33301 7.0835 8.33301Z" stroke="#355B85" stroke-width="1.5"/>
<path d="M12.917 14.166C13.6073 14.166 14.167 13.6063 14.167 12.916C14.167 12.2257 13.6073 11.666 12.917 11.666C12.2267 11.666 11.667 12.2257 11.667 12.916C11.667 13.6063 12.2267 14.166 12.917 14.166Z" stroke="#355B85" stroke-width="1.5"/>
<path d="M8.3335 7.08301H14.1668" stroke="#355B85" stroke-width="1.5" stroke-linecap="round"/>
<path d="M11.6668 12.916H5.8335" stroke="#355B85" stroke-width="1.5" stroke-linecap="round"/>
</svg>
