<svg width="18" height="19" viewBox="0 0 18 19" fill="none" xmlns="http://www.w3.org/2000/svg">
<path d="M6 11.75C5.65 11.75 5.354 11.629 5.112 11.387C4.87 11.145 4.74933 10.8493 4.75 10.5C4.75067 10.1507 4.87167 9.85467 5.113 9.612C5.35433 9.36934 5.65 9.24867 6 9.25C6.35 9.25133 6.646 9.37233 6.888 9.613C7.13 9.85367 7.25067 10.1493 7.25 10.5C7.24933 10.8507 7.12833 11.1467 6.887 11.388C6.64567 11.6293 6.35 11.75 6 11.75ZM12 11.75C11.65 11.75 11.354 11.629 11.112 11.387C10.87 11.145 10.7493 10.8493 10.75 10.5C10.7507 10.1507 10.8717 9.85467 11.113 9.612C11.3543 9.36934 11.65 9.24867 12 9.25C12.35 9.25133 12.646 9.37233 12.888 9.613C13.13 9.85367 13.2507 10.1493 13.25 10.5C13.2493 10.8507 13.1283 11.1467 12.887 11.388C12.6457 11.6293 12.35 11.75 12 11.75ZM9 17.5C11.2333 17.5 13.125 16.725 14.675 15.175C16.225 13.625 17 11.7333 17 9.5C17 9.1 16.975 8.71267 16.925 8.338C16.875 7.96334 16.7833 7.60067 16.65 7.25C16.3 7.33333 15.95 7.396 15.6 7.438C15.25 7.48 14.8833 7.50067 14.5 7.5C12.9833 7.5 11.55 7.175 10.2 6.525C8.85 5.875 7.7 4.96667 6.75 3.8C6.21667 5.1 5.45433 6.22933 4.463 7.188C3.47167 8.14667 2.31733 8.86733 1 9.35V9.5C1 11.7333 1.775 13.625 3.325 15.175C4.875 16.725 6.76667 17.5 9 17.5ZM9.003 18.5C7.75833 18.5 6.58833 18.264 5.493 17.792C4.39767 17.3193 3.44467 16.6783 2.634 15.869C1.82333 15.0597 1.18167 14.1073 0.709 13.012C0.236333 11.9167 0 10.747 0 9.503C0 8.259 0.236333 7.089 0.709 5.993C1.18167 4.897 1.822 3.944 2.63 3.134C3.438 2.324 4.39033 1.68233 5.487 1.209C6.58367 0.735668 7.75367 0.499335 8.997 0.500001C10.2403 0.500668 11.4103 0.737002 12.507 1.209C13.6037 1.681 14.5567 2.32167 15.366 3.131C16.1753 3.94033 16.817 4.89267 17.291 5.988C17.765 7.08333 18.0013 8.253 18 9.497C17.9987 10.741 17.7627 11.911 17.292 13.007C16.8213 14.103 16.18 15.056 15.368 15.866C14.556 16.676 13.604 17.3177 12.512 17.791C11.42 18.2643 10.2503 18.5007 9.003 18.5Z" fill="#355B85"/>
</svg>
